<?xml version="1.0" standalone="no"?>
<!DOCTYPE svg PUBLIC "-//W3C//DTD SVG 20010904//EN"
 "http://www.w3.org/TR/2001/REC-SVG-20010904/DTD/svg10.dtd">
<svg version="1.0" xmlns="http://www.w3.org/2000/svg"
 width="300.000000pt" height="225.000000pt" viewBox="0 0 300.000000 225.000000"
 preserveAspectRatio="xMidYMid meet">
<metadata>
Created by potrace 1.10, written by Peter Selinger 2001-2011
</metadata>
<g transform="translate(0.000000,225.000000) scale(0.100000,-0.100000)"
fill="#000000" stroke="none">
<path d="M1125 1712 l-131 -3 -25 -52 c-33 -71 -417 -825 -490 -963 -33 -61
-59 -113 -59 -115 0 -2 60 -3 132 -2 l133 2 86 168 c336 660 445 873 466 912
13 24 23 46 21 50 -2 3 -62 5 -133 3z m80 -34 c4 -3 -9 -37 -28 -75 -19 -37
-83 -165 -143 -283 -60 -118 -112 -219 -116 -225 -5 -5 -60 -113 -124 -240
-63 -126 -120 -235 -126 -242 -7 -9 -39 -13 -99 -13 -76 0 -89 2 -89 16 0 21
70 166 84 176 6 4 8 8 5 8 -3 0 11 33 32 73 21 39 90 176 153 302 144 285 188
369 198 373 5 2 8 9 8 17 0 19 50 104 67 113 17 10 168 10 178 0z"/>
<path d="M1270 1360 l0 -100 -48 0 -48 0 -32 -61 c-18 -33 -32 -63 -32 -66 0
-2 35 -3 78 -2 l77 4 5 -242 5 -242 28 -29 c36 -38 92 -52 201 -52 l86 0 0 74
0 73 -49 -5 c-40 -3 -52 -1 -70 17 -20 20 -21 31 -21 215 l0 193 48 -4 47 -5
30 58 c16 33 31 62 33 67 2 4 -33 7 -77 7 l-81 0 0 100 0 100 -90 0 -90 0 0
-100z m142 13 c1 -27 2 -55 4 -63 1 -8 2 -23 3 -32 2 -30 42 -58 83 -58 27 0
38 -4 38 -15 0 -16 -25 -29 -73 -40 -48 -10 -59 -53 -56 -235 1 -101 7 -169
15 -188 13 -32 47 -59 79 -65 31 -4 45 -16 45 -37 0 -29 -28 -38 -95 -33 -70
6 -121 27 -138 57 -10 17 -18 233 -17 444 0 33 -34 62 -74 62 -19 0 -37 4 -41
9 -8 14 24 41 50 41 13 0 33 12 47 29 21 24 24 38 23 87 -1 33 2 65 8 72 5 6
29 12 53 12 l44 0 2 -47z"/>
<path d="M1965 1248 c-11 -30 -105 -429 -105 -445 0 -32 -17 1 -33 62 -8 33
-22 85 -30 115 -8 30 -27 100 -42 155 -14 55 -27 105 -29 110 -2 6 -30 -44
-63 -110 l-60 -120 32 -100 c46 -140 91 -285 98 -315 6 -25 8 -25 104 -25 l99
0 53 215 c29 118 56 224 61 235 7 18 8 17 15 -10 19 -84 45 -188 65 -260 12
-44 27 -102 34 -128 l11 -48 96 -2 96 -2 31 95 c17 52 54 169 82 260 28 91 64
202 79 248 l28 82 -97 0 -96 0 -58 -217 c-32 -120 -61 -227 -65 -238 -10 -24
-2 -50 -72 238 l-52 217 -89 0 c-62 0 -90 -4 -93 -12z m143 -37 c8 -4 36 -96
64 -202 57 -224 77 -259 121 -211 17 19 32 63 87 267 44 159 41 155 97 155
l46 0 -6 -32 c-9 -51 -14 -68 -41 -153 -15 -44 -40 -125 -57 -180 -17 -55 -35
-109 -39 -120 -4 -11 -13 -38 -20 -60 -19 -61 -27 -66 -88 -64 -64 3 -73 12
-96 114 -41 173 -85 305 -108 319 -14 8 -22 6 -38 -9 -19 -19 -31 -58 -96
-314 -13 -52 -29 -98 -36 -103 -22 -13 -105 -9 -121 7 -8 8 -34 74 -57 147
-23 73 -48 152 -56 176 -8 23 -14 52 -14 63 0 24 49 119 61 119 5 0 13 -19 20
-42 6 -24 20 -74 30 -113 11 -38 22 -79 24 -90 15 -68 56 -118 84 -101 21 13
55 129 116 390 2 10 9 24 16 32 13 15 86 19 107 5z"/>
</g>
</svg>
